<svg width="14" height="13" viewBox="0 0 14 13" fill="none" xmlns="http://www.w3.org/2000/svg">
<path fill-rule="evenodd" clip-rule="evenodd" d="M2.79795 1.21154C2.26691 1.21154 1.83642 1.64203 1.83642 2.17308V10.8269C1.83642 11.358 2.26691 11.7885 2.79795 11.7885H11.4518C11.9828 11.7885 12.4133 11.358 12.4133 10.8269V2.17308C12.4133 1.64203 11.9828 1.21154 11.4518 1.21154H2.79795ZM0.874878 2.17308C0.874878 1.11099 1.73587 0.25 2.79795 0.25H11.4518C12.5139 0.25 13.3749 1.11099 13.3749 2.17308V10.8269C13.3749 11.889 12.5139 12.75 11.4518 12.75H2.79795C1.73587 12.75 0.874878 11.889 0.874878 10.8269V2.17308ZM10.3187 3.72803C10.522 3.89881 10.5484 4.20207 10.3776 4.40538L6.33916 9.21307C6.24966 9.31962 6.11838 9.38217 5.97924 9.38455C5.84011 9.38692 5.70677 9.3289 5.61368 9.22546L3.88291 7.30239C3.70529 7.10503 3.72128 6.80104 3.91864 6.62342C4.11601 6.44579 4.41999 6.46179 4.59762 6.65915C5.31653 7.45795 6.57577 7.43644 7.26699 6.61356L9.64137 3.78693C9.81215 3.58362 10.1154 3.55725 10.3187 3.72803Z" fill="#F2F2F2"/>
</svg>
