<svg width="416" height="416" viewBox="0 0 416 416" fill="none" xmlns="http://www.w3.org/2000/svg">
<path d="M208 416C93.31 416 0 322.53 0 207.65C0 145.2 27.25 86.65 74.76 47.1C76.9783 45.2422 79.5413 43.8402 82.3022 42.9743C85.0632 42.1085 87.9678 41.7958 90.8497 42.0541C93.7317 42.3125 96.5344 43.1368 99.0973 44.4799C101.66 45.823 103.933 47.6585 105.786 49.8812C107.638 52.104 109.034 54.6703 109.893 57.4333C110.752 60.1963 111.058 63.1017 110.793 65.983C110.528 68.8643 109.697 71.665 108.347 74.2247C106.998 76.7844 105.157 79.0528 102.93 80.9C65.48 112.1 44 158.3 44 207.65C44 298.27 117.57 372 208 372C298.43 372 372 298.27 372 207.65C371.997 183.432 366.631 159.514 356.286 137.616C345.942 115.718 330.875 96.3831 312.17 81C309.853 79.1911 307.922 76.9362 306.491 74.3686C305.06 71.8009 304.158 68.9725 303.839 66.0505C303.519 63.1284 303.788 60.172 304.631 57.3558C305.473 54.5395 306.871 51.9206 308.742 49.6537C310.613 47.3868 312.92 45.5179 315.526 44.1573C318.131 42.7968 320.983 41.9722 323.913 41.7323C326.842 41.4924 329.79 41.842 332.583 42.7605C335.375 43.679 337.955 45.1477 340.17 47.08C363.883 66.5835 382.982 91.0976 396.093 118.861C409.204 146.624 416.003 176.947 416 207.65C416 322.53 322.69 416 208 416Z" fill="#F2F2F2"/>
<path d="M208 224C202.165 224 196.569 221.682 192.444 217.556C188.318 213.431 186 207.835 186 202V22C186 16.1652 188.318 10.5694 192.444 6.44365C196.569 2.31785 202.165 0 208 0C213.835 0 219.431 2.31785 223.556 6.44365C227.682 10.5694 230 16.1652 230 22V202C230 207.835 227.682 213.431 223.556 217.556C219.431 221.682 213.835 224 208 224Z" fill="#F2F2F2"/>
</svg>
