<svg width="13" height="13" viewBox="0 0 13 13" fill="none" xmlns="http://www.w3.org/2000/svg">
<path fill-rule="evenodd" clip-rule="evenodd" d="M10.94 0.338096C11.0804 0.279936 11.2308 0.25 11.3828 0.25C11.5348 0.25 11.6853 0.279936 11.8257 0.338096C11.9661 0.396256 12.0936 0.481503 12.2011 0.588971L12.2236 0.611481L12.2238 0.611654C12.4406 0.82864 12.5624 1.12284 12.5624 1.42959C12.5624 1.73633 12.4406 2.03053 12.2238 2.24752L12.2236 2.24769L11.8693 2.60196C11.6112 2.86012 11.1926 2.86012 10.9345 2.60196L10.2103 1.8778C10.0863 1.75379 10.0166 1.58559 10.0167 1.41022C10.0167 1.23484 10.0864 1.06667 10.2105 0.942715L10.5645 0.588971C10.672 0.481505 10.7996 0.396258 10.94 0.338096ZM9.39548 2.03115C9.57094 2.03105 9.73925 2.1007 9.86332 2.22477L10.5875 2.94894C10.7115 3.07301 10.7812 3.24132 10.7811 3.41679C10.781 3.59225 10.7111 3.76048 10.5869 3.8844L2.38983 12.0614C2.32841 12.1227 2.25553 12.1713 2.17535 12.2044L0.975833 12.6999C0.728931 12.8019 0.444911 12.7453 0.256016 12.5564C0.0671206 12.3675 0.0104821 12.0834 0.112472 11.8365L0.607962 10.637C0.641083 10.5568 0.689663 10.4839 0.750932 10.4225L8.92788 2.22535C9.0518 2.10112 9.22002 2.03126 9.39548 2.03115Z" fill="#F2F2F2"/>
</svg>
