<svg width="13" height="15" viewBox="0 0 13 15" fill="none" xmlns="http://www.w3.org/2000/svg">
<path fill-rule="evenodd" clip-rule="evenodd" d="M1.78014 2.31096C2.06722 2.29321 2.3145 2.509 2.33244 2.79293L2.98348 13.0951C2.9836 13.097 2.98371 13.0989 2.98381 13.1008C3.00182 13.4475 3.23454 13.6424 3.50533 13.6424H9.49492C9.76303 13.6424 9.99472 13.4518 10.0167 13.0958L10.6678 2.79293C10.6857 2.509 10.933 2.29321 11.2201 2.31096C11.5072 2.3287 11.7254 2.57326 11.7074 2.85719L11.0564 13.1587L11.0564 13.1588C11.0048 13.9933 10.3772 14.6726 9.49492 14.6726H3.50533C2.63136 14.6726 1.98893 13.9992 1.94368 13.1568L1.2928 2.85719C1.27486 2.57326 1.49305 2.3287 1.78014 2.31096Z" fill="#F2F2F2"/>
<path d="M0.770955 2.82506H12.2293Z" fill="#F2F2F2"/>
<path fill-rule="evenodd" clip-rule="evenodd" d="M0.250122 2.82506C0.250122 2.54058 0.483307 2.30995 0.770955 2.30995H12.2293C12.5169 2.30995 12.7501 2.54058 12.7501 2.82506C12.7501 3.10955 12.5169 3.34017 12.2293 3.34017H0.770955C0.483307 3.34017 0.250122 3.10955 0.250122 2.82506Z" fill="#F2F2F2"/>
<path fill-rule="evenodd" clip-rule="evenodd" d="M5.19651 1.27973C5.16248 1.27963 5.12877 1.28619 5.09732 1.29902C5.06586 1.31185 5.03728 1.33071 5.01322 1.35451C4.98916 1.3783 4.9701 1.40657 4.95712 1.43768C4.94415 1.46879 4.93752 1.50213 4.93762 1.53578L4.93762 1.53729V2.82506C4.93762 3.10955 4.70444 3.34017 4.41679 3.34017C4.12914 3.34017 3.89595 3.10955 3.89595 2.82506V1.53795C3.89557 1.36879 3.92894 1.20121 3.99416 1.04482C4.0595 0.888178 4.1555 0.745852 4.27665 0.626032C4.39781 0.506212 4.54171 0.411263 4.7001 0.346647C4.85822 0.282138 5.02766 0.249131 5.1987 0.249515H7.80154C7.97258 0.249131 8.14202 0.282139 8.30014 0.346647C8.45852 0.411263 8.60243 0.506211 8.72359 0.626032C8.84474 0.745853 8.94074 0.88818 9.00608 1.04482C9.07131 1.20124 9.10469 1.36886 9.10429 1.53805V2.82506C9.10429 3.10955 8.8711 3.34017 8.58345 3.34017C8.29581 3.34017 8.06262 3.10955 8.06262 2.82506V1.53729L8.06262 1.53578C8.06272 1.50213 8.05609 1.46879 8.04312 1.43768C8.03014 1.40657 8.01108 1.3783 7.98702 1.35451C7.96296 1.33071 7.93438 1.31185 7.90292 1.29902C7.87146 1.28619 7.83776 1.27963 7.80373 1.27973L7.8022 1.27973H5.19804L5.19651 1.27973ZM4.13778 4.37072C4.42525 4.36057 4.66661 4.58281 4.67687 4.86712L4.93729 12.0786C4.94756 12.363 4.72284 12.6017 4.43538 12.6118C4.14791 12.622 3.90655 12.3997 3.89629 12.1154L3.63587 4.90389C3.6256 4.61958 3.85032 4.38087 4.13778 4.37072ZM8.86246 4.37072C9.14992 4.38087 9.37464 4.61958 9.36437 4.90389L9.10395 12.1154C9.09369 12.3997 8.85233 12.622 8.56486 12.6118C8.2774 12.6017 8.05269 12.363 8.06295 12.0786L8.32337 4.86712C8.33364 4.58281 8.57499 4.36057 8.86246 4.37072ZM6.50012 4.37039C6.78777 4.37039 7.02095 4.60101 7.02095 4.8855V12.097C7.02095 12.3815 6.78777 12.6121 6.50012 12.6121C6.21247 12.6121 5.97929 12.3815 5.97929 12.097V4.8855C5.97929 4.60101 6.21247 4.37039 6.50012 4.37039Z" fill="#F2F2F2"/>
</svg>
