<svg width="218" height="60" viewBox="0 0 218 60" fill="none" xmlns="http://www.w3.org/2000/svg">
<path fill-rule="evenodd" clip-rule="evenodd" d="M127.889 55.1008C128.671 56.2904 129.643 57.3097 130.803 58.1587C132.582 59.3862 134.72 60 137.218 60C139.758 60 142.066 59.3016 144.141 57.9048C146.258 56.4656 147.93 54.4974 149.158 52C150.386 49.4603 151 46.582 151 43.3651C151 42.0332 150.854 40.7498 150.563 39.515C152.482 39.2867 154.422 40.4356 154.953 42.4095L155.449 44.256C157.039 50.1693 162.672 51.5811 167.602 48.193C167.632 48.2317 167.664 48.2697 167.697 48.3069C168.513 49.2271 169.922 49.3122 170.844 48.497L176.454 43.5312C180.353 43.7537 184.262 43.7677 188.161 43.5543C193.144 43.3497 197.294 41.6457 200.756 39.0598L191.406 38.495L205.274 34.7893C206.4 33.4733 207.425 32.0648 208.358 30.5958L200.844 30.1418L211.008 25.81C215.46 16.6045 216.973 6.7874 217.288 4.36552C212.472 4.40552 178.588 5.57831 174.837 28.5345C174.402 30.9863 174.09 33.4566 173.834 35.9322L191.399 20.3841C192.013 19.8402 192.953 19.897 193.497 20.5108C194.041 21.1246 193.984 22.0627 193.37 22.6066L167.887 45.1636C167.118 45.8437 166.932 46.9361 167.365 47.8139C164.24 49.1371 159.83 46.747 158.924 43.3765L158.428 41.53C157.353 37.5345 153.226 35.3259 149.364 36.1836C148.485 34.4477 147.252 33.032 145.665 31.9365C143.887 30.6667 141.748 30.0317 139.25 30.0317C136.668 30.0317 134.339 30.7513 132.264 32.1905C130.189 33.5873 128.538 35.5555 127.31 38.0952C126.125 40.5926 125.532 43.4497 125.532 46.6667C125.532 47.5319 125.593 48.3768 125.716 49.2011C124.821 50.1697 124.047 50.9333 123.395 51.4921C122.209 52.5079 121.045 53.0159 119.902 53.0159C119.012 53.0159 118.271 52.4868 117.679 51.4286C117.128 50.3704 116.768 48.6138 116.599 46.1587C120.494 39.4709 123.606 32.9524 125.935 26.6032C128.264 20.254 129.428 14.709 129.428 9.96825C129.428 6.62434 128.814 4.12698 127.587 2.47619C126.401 0.825397 124.898 0 123.077 0C119.394 0 116.408 2.92063 114.122 8.7619C111.878 14.5608 110.354 21.5661 109.549 29.7778C106.416 30.1164 103.579 31.2169 101.039 33.0794C98.5405 34.8995 96.5717 37.2698 95.1321 40.1905C93.6925 43.0688 92.9727 46.2011 92.9727 49.5873C92.9727 52.6772 93.7983 55.1958 95.4496 57.1429C97.1433 59.0476 99.2815 60 101.864 60C103.643 60 105.188 59.619 106.501 58.8571C107.856 58.0952 109.422 56.5926 111.201 54.3492C112.894 58.1164 115.35 60 118.568 60C120.6 60 122.654 59.2593 124.728 57.7778C125.83 56.9689 126.883 56.0766 127.889 55.1008ZM141.791 38.6667C142.12 39.127 142.385 39.6736 142.586 40.3064C139.896 41.8026 137.714 41.9537 136.068 41.5995C135.375 41.4504 134.737 41.2037 134.16 40.8939C134.369 40.2672 134.627 39.7153 134.932 39.2381C135.948 37.672 137.218 36.8889 138.742 36.8889C139.928 36.8889 140.944 37.4815 141.791 38.6667ZM135.29 45.0008C134.667 44.8667 134.077 44.6826 133.522 44.4593C133.488 44.9777 133.471 45.523 133.471 46.0952C133.471 48.5079 133.894 50.2857 134.741 51.4286C135.588 52.5714 136.646 53.1429 137.917 53.1429C139.356 53.1429 140.563 52.3598 141.537 50.7936C142.547 49.2365 143.055 46.968 143.061 43.9881C140.231 45.2691 137.615 45.5012 135.29 45.0008ZM122.379 6.22222C121.574 6.22222 120.77 7.66137 119.965 10.5397C119.161 13.3757 118.462 17.1005 117.869 21.7143C117.319 26.328 116.917 31.1534 116.663 36.1905C121.405 25.8624 123.776 17.5661 123.776 11.3016C123.776 9.69312 123.628 8.44444 123.331 7.55556C123.077 6.66667 122.76 6.22222 122.379 6.22222ZM104.087 53.5873C104.892 53.5873 105.696 53.2698 106.501 52.6349C107.305 51.9577 108.321 50.7302 109.549 48.9524C109.126 46.6667 108.914 44.1058 108.914 41.2698C108.914 40.254 108.956 38.6032 109.041 36.3175C106.712 37.037 104.765 38.6032 103.198 41.0159C101.674 43.3862 100.912 46.0317 100.912 48.9524C100.912 52.0423 101.97 53.5873 104.087 53.5873ZM51.1904 6.98413C52.503 7.2381 53.4768 7.68254 54.1119 8.31746C54.7894 8.95238 55.1281 9.69312 55.1281 10.5397C55.1281 11.9365 54.7259 12.9524 53.9214 13.5873C53.1593 14.2222 51.9314 14.4762 50.2377 14.3492C46.427 14.0529 43.442 13.8624 41.2826 13.7778C39.1655 13.6508 36.371 13.5661 32.899 13.5238C31.3324 21.3122 29.8928 29.1429 28.5803 37.0159C28.1145 39.8942 27.6276 43.2381 27.1195 47.0476C26.6114 50.8148 26.2727 53.8624 26.1033 56.1905C26.0186 57.418 25.5105 58.3704 24.579 59.0476C23.6475 59.6825 22.5255 60 21.2129 60C19.8156 60 18.7359 59.6614 17.9738 58.9841C17.2117 58.3069 16.8306 57.418 16.8306 56.3175C16.8306 55.3016 16.9788 53.6296 17.2752 51.3016C17.6139 48.9312 17.995 46.455 18.4184 43.873C18.8841 41.291 19.244 39.0476 19.4981 37.1429C19.9638 33.9259 20.4931 30.7302 21.0859 27.5556C21.6787 24.381 22.2714 21.3757 22.8642 18.5397C22.9912 17.9048 23.1394 17.1852 23.3088 16.381C23.4781 15.5344 23.6687 14.6032 23.8804 13.5873C19.731 13.7143 16.4707 14.0529 14.0996 14.6032C11.7285 15.1534 10.0348 15.9365 9.01866 16.9524C8.04481 17.9259 7.55789 19.1958 7.55789 20.7619C7.55789 22.2011 7.9813 23.5767 8.82812 24.8889C8.99749 25.1852 9.08217 25.5026 9.08217 25.8413C9.08217 26.6455 8.59525 27.4074 7.6214 28.127C6.6899 28.8042 5.71605 29.1429 4.69986 29.1429C3.98007 29.1429 3.38729 28.9312 2.92154 28.5079C2.07471 27.7884 1.37609 26.7725 0.825652 25.4603C0.275217 24.1058 0 22.582 0 20.8889C0 17.291 1.16438 14.4127 3.49314 12.254C5.86425 10.0529 9.44207 8.44445 14.2266 7.42857C19.0535 6.4127 25.2353 5.90476 32.772 5.90476C37.4296 5.90476 41.1344 5.98942 43.8866 6.15873C46.6811 6.32804 49.1157 6.60318 51.1904 6.98413ZM50.1375 60C47.6394 60 45.5012 59.3862 43.7228 58.1587C41.9868 56.8889 40.6743 55.2381 39.7851 53.2063C38.8959 51.1746 38.4514 48.9947 38.4514 46.6667C38.4514 43.4497 39.0441 40.5926 40.2297 38.0952C41.4576 35.5555 43.1089 33.5873 45.1836 32.1905C47.2583 30.7513 49.5871 30.0317 52.1699 30.0317C54.668 30.0317 56.8062 30.6667 58.5846 31.9365C60.3629 33.164 61.6966 34.7937 62.5858 36.8254C63.475 38.8571 63.9195 41.037 63.9195 43.3651C63.9195 46.582 63.3056 49.4603 62.0777 52C60.8498 54.4974 59.1773 56.4656 57.0603 57.9048C54.9856 59.3016 52.678 60 50.1375 60ZM50.8361 53.1429C52.2757 53.1429 53.4825 52.3598 54.4563 50.7936C55.4725 49.2275 55.9806 46.9418 55.9806 43.9365C55.9806 43.5508 55.969 43.1808 55.9457 42.8264C53.2682 44.0111 50.7823 44.2381 48.5508 43.7786C47.8492 43.6342 47.1888 43.4249 46.5705 43.1661C46.4504 44.0485 46.3903 45.0249 46.3903 46.0952C46.3903 48.5079 46.8137 50.2857 47.6606 51.4286C48.5074 52.5714 49.5659 53.1429 50.8361 53.1429ZM47.6164 39.6374C48.1306 39.8859 48.6873 40.0824 49.2829 40.205C50.7798 40.5132 52.7106 40.392 55.0524 39.219C54.9473 39.0228 54.8333 38.8387 54.7103 38.6667C53.8635 37.4815 52.8473 36.8889 51.6618 36.8889C50.1375 36.8889 48.8673 37.672 47.8511 39.2381C47.7694 39.3658 47.6912 39.4989 47.6164 39.6374ZM69.6435 43.1746C70.2786 43.8518 71.1043 44.1481 72.1205 44.0635L85.1404 42.7936C87.3421 42.582 88.443 41.3333 88.443 39.0476C88.443 37.8624 88.1466 36.9735 87.5538 36.3809C87.0034 35.746 86.1989 35.4709 85.1404 35.5556L72.1205 36.8254C71.0196 36.9101 70.1728 37.2275 69.58 37.7778C69.0296 38.328 68.7544 39.1746 68.7544 40.3175C68.7544 41.545 69.0508 42.4974 69.6435 43.1746Z" fill="#F2F2F2"/>
</svg>
